<svg width="19" height="19" viewBox="0 0 19 19" fill="none" xmlns="http://www.w3.org/2000/svg">
<path d="M18.5361 16.2973L14.5168 12.278C15.3473 11.0263 15.8333 9.52771 15.8333 7.91667C15.8333 3.55142 12.2819 0 7.91667 0C3.55142 0 0 3.55142 0 7.91667C0 12.2819 3.55142 15.8333 7.91667 15.8333C9.52771 15.8333 11.0263 15.3473 12.278 14.5168L16.2973 18.5361C16.9148 19.1544 17.9186 19.1544 18.5361 18.5361C19.1544 17.9178 19.1544 16.9155 18.5361 16.2973ZM2.375 7.91667C2.375 4.86083 4.86083 2.375 7.91667 2.375C10.9725 2.375 13.4583 4.86083 13.4583 7.91667C13.4583 10.9725 10.9725 13.4583 7.91667 13.4583C4.86083 13.4583 2.375 10.9725 2.375 7.91667Z" fill="black" fill-opacity="0.72"/>
</svg>
