<svg width="23" height="19" viewBox="0 0 23 19" fill="none" xmlns="http://www.w3.org/2000/svg">
<path d="M8.6886 17.7745C7.9942 17.7745 8.05733 17.5268 7.86795 16.9075L5.84788 10.4052L21.314 1.48785" fill="#C8DAEA"/>
<path d="M8.6886 17.7745C9.13049 17.7745 9.383 17.5268 9.69863 17.2791L12.5394 14.6162L9.00423 12.5107" fill="#A9C9DD"/>
<path d="M9.00423 12.5107L17.5264 18.6414C18.4102 19.1988 19.1677 18.8891 19.4202 17.7744L22.8922 1.79747C23.2078 0.435091 22.324 -0.184171 21.3771 0.249313L1.11335 7.92817C-0.212315 8.42358 -0.212315 9.22862 0.860845 9.53825L6.10039 11.1483L18.0945 3.65526C18.6627 3.34563 19.1677 3.46948 18.7889 3.90296" fill="#F6FBFE"/>
</svg>
